<svg width="512" height="512" viewBox="0 0 512 512" fill="none" xmlns="http://www.w3.org/2000/svg">
<path d="M336 176C357.217 176 377.566 167.571 392.569 152.569C407.571 137.566 416 117.217 416 96C416 74.7827 407.571 54.4344 392.569 39.4315C377.566 24.4285 357.217 16 336 16H176C154.783 16 134.434 24.4285 119.431 39.4315C104.429 54.4344 96 74.7827 96 96C96 117.217 104.429 137.566 119.431 152.569C134.434 167.571 154.783 176 176 176C154.783 176 134.434 184.429 119.431 199.431C104.429 214.434 96 234.783 96 256C96 277.217 104.429 297.566 119.431 312.569C134.434 327.571 154.783 336 176 336C160.178 336 144.71 340.692 131.554 349.482C118.398 358.273 108.145 370.767 102.09 385.385C96.0346 400.003 94.4504 416.089 97.5372 431.607C100.624 447.126 108.243 461.38 119.431 472.569C130.62 483.757 144.874 491.376 160.393 494.463C175.911 497.55 191.997 495.965 206.615 489.91C221.233 483.855 233.727 473.602 242.518 460.446C251.308 447.29 256 431.823 256 416V176H336Z" fill="black"/>
<path d="M336 336C380.183 336 416 300.183 416 256C416 211.817 380.183 176 336 176C291.817 176 256 211.817 256 256C256 300.183 291.817 336 336 336Z" fill="black"/>
</svg>
