<svg width="448" height="449" viewBox="0 0 448 449" fill="none" xmlns="http://www.w3.org/2000/svg">
<path d="M0 0.25V448.25H448V0.25H0ZM240 348.25C240 391.86 214.24 413.12 176.95 413.12C143.27 413.12 123.72 395.68 113.8 374.63L148.08 353.88C154.69 365.61 159.71 375.53 174.14 375.53C186.14 375.53 196 370.12 196 349.07V208.25H240V348.25ZM339.35 412.12C300.26 412.12 275 394.48 262.67 370.12L297 350.25C306 364.99 317.75 374.81 338.5 374.81C355.94 374.81 366.07 367.09 366.07 355.06C366.07 340.63 355.64 335.52 336.39 327.06L325.87 322.54C295.49 309.62 275.35 293.38 275.35 259.09C275.35 227.52 299.4 204.46 336.99 204.46C363.76 204.46 382.99 212.78 396.84 237.14L364 258.25C356.78 245.32 349 240.25 336.94 240.25C324.61 240.25 316.79 248.07 316.79 258.25C316.79 270.88 324.61 275.99 342.65 283.81L353.17 288.32C388.96 303.66 409.11 319.32 409.11 354.48C409.12 392.38 379.35 412.12 339.35 412.12Z" fill="black"/>
</svg>
