<svg width="512" height="512" viewBox="0 0 512 512" fill="none" xmlns="http://www.w3.org/2000/svg">
<path d="M410.66 180.72C405.547 178.973 400.397 177.347 395.21 175.84C396.07 172.34 396.863 168.82 397.59 165.28C409.29 108.38 401.64 62.54 375.53 47.45C350.53 32.97 309.53 48.06 268.17 84.14C264.103 87.7 260.12 91.3667 256.22 95.14C253.62 92.6333 250.953 90.18 248.22 87.78C204.87 49.2 161.42 32.95 135.34 48.09C110.34 62.6 102.91 105.69 113.44 159.62C114.493 164.953 115.677 170.263 116.99 175.55C111.014 177.244 105.088 179.112 99.22 181.15C48.46 198.9 16 226.73 16 255.59C16 285.41 50.84 315.31 103.77 333.44C108.063 334.9 112.397 336.257 116.77 337.51C115.35 343.17 114.093 348.893 113 354.68C103 407.68 110.8 449.75 135.75 464.17C161.52 479.06 204.75 463.76 246.89 426.86C250.223 423.94 253.557 420.857 256.89 417.61C261.103 421.683 265.437 425.637 269.89 429.47C310.69 464.65 350.98 478.86 375.89 464.4C401.64 449.46 410.01 404.26 399.14 349.27C398.307 345.07 397.347 340.783 396.26 336.41C399.3 335.51 402.277 334.58 405.19 333.62C460.19 315.35 496.02 285.81 496.02 255.62C496 226.62 462.5 198.61 410.66 180.72V180.72ZM281.66 99.64C317.09 68.73 350.21 56.53 365.31 65.25C381.38 74.54 387.63 112 377.53 161.13C376.863 164.33 376.143 167.52 375.37 170.7C354.226 165.891 332.785 162.497 311.19 160.54C298.825 142.729 285.271 125.773 270.62 109.79C274.207 106.31 277.88 102.927 281.64 99.64H281.66ZM157.73 280.25C162.07 288.65 166.607 296.947 171.34 305.14C176.16 313.5 181.183 321.737 186.41 329.85C171.551 328.234 156.784 325.855 142.17 322.72C146.41 309 151.63 294.75 157.73 280.25V280.25ZM157.73 231.92C151.73 217.73 146.65 203.77 142.48 190.29C156.18 187.22 170.78 184.71 186 182.81C180.9 190.77 175.993 198.847 171.28 207.04C166.567 215.233 162.04 223.527 157.7 231.92H157.73ZM168.63 256.09C174.95 242.91 181.757 229.983 189.05 217.31C196.337 204.643 204.093 192.267 212.32 180.18C226.6 179.1 241.24 178.53 256.03 178.53C270.82 178.53 285.55 179.1 299.82 180.19C307.96 192.25 315.67 204.583 322.95 217.19C330.23 229.797 337.127 242.663 343.64 255.79C337.213 269.017 330.333 281.997 323 294.73C315.727 307.397 308.06 319.81 300 331.97C285.75 332.97 271 333.52 256 333.52C241 333.52 226.53 333.05 212.54 332.14C204.253 320.013 196.433 307.583 189.08 294.85C181.727 282.117 174.9 269.197 168.6 256.09H168.63ZM340.75 305C345.583 296.613 350.223 288.117 354.67 279.51C360.766 293.331 366.146 307.456 370.79 321.83C356.004 325.16 341.053 327.713 326 329.48C331.08 321.42 335.997 313.26 340.75 305V305ZM354.47 231.93C350.043 223.497 345.44 215.163 340.66 206.93C335.993 198.81 331.13 190.79 326.07 182.87C341.38 184.81 356.07 187.39 369.84 190.54C365.413 204.585 360.283 218.399 354.47 231.93V231.93ZM256.23 124.48C266.215 135.391 275.644 146.799 284.48 158.66C265.58 157.76 246.667 157.76 227.74 158.66C237.07 146.32 246.62 134.87 256.23 124.48V124.48ZM145.66 65.86C161.72 56.54 197.23 69.86 234.66 103.13C237.05 105.26 239.46 107.49 241.86 109.8C227.134 125.781 213.484 142.722 201 160.51C179.453 162.451 158.054 165.792 136.94 170.51C135.72 165.603 134.62 160.663 133.64 155.69C124.59 109.46 130.58 74.61 145.66 65.86ZM122.25 317.71C118.25 316.57 114.3 315.333 110.4 314C87 306 67.67 295.56 54.4 284.19C42.52 274 36.5 263.83 36.5 255.59C36.5 238.08 62.56 215.74 106.02 200.59C111.48 198.69 116.987 196.953 122.54 195.38C128.994 216.123 136.811 236.417 145.94 256.13C136.703 276.115 128.789 296.686 122.25 317.71V317.71ZM233.38 411.38C214.75 427.7 196.09 439.27 179.64 445.1C164.86 450.33 153.09 450.48 145.98 446.37C130.84 437.62 124.54 403.83 133.13 358.51C134.15 353.177 135.317 347.843 136.63 342.51C157.955 347.104 179.569 350.241 201.32 351.9C213.926 369.781 227.688 386.817 242.52 402.9C239.54 405.83 236.49 408.65 233.38 411.38ZM256.8 388.16C247.08 377.65 237.38 366.02 227.92 353.52C237.113 353.88 246.473 354.06 256 354.06C265.78 354.06 275.46 353.85 285 353.42C276.196 365.472 266.784 377.067 256.8 388.16V388.16ZM381.32 416.75C378.46 432.19 372.71 442.49 365.6 446.61C350.47 455.39 318.12 443.98 283.24 413.89C279.24 410.45 275.24 406.76 271.17 402.89C285.713 386.745 299.153 369.639 311.4 351.69C333.272 349.837 354.99 346.479 376.4 341.64C377.38 345.6 378.247 349.48 379 353.28C383.81 377.58 384.5 399.56 381.32 416.75V416.75ZM398.72 314.11C396.1 314.98 393.4 315.82 390.66 316.64C383.947 295.799 375.824 275.439 366.35 255.7C375.469 236.224 383.273 216.159 389.71 195.64C394.62 197.07 399.39 198.57 403.98 200.16C448.4 215.48 475.5 238.16 475.5 255.59C475.5 274.19 446.23 298.33 398.72 314.11V314.11Z" fill="black"/>
<path d="M256 298.55C264.51 298.578 272.838 296.079 279.928 291.371C287.017 286.663 292.55 279.957 295.826 272.103C299.103 264.248 299.974 255.598 298.331 247.247C296.687 238.897 292.603 231.222 286.595 225.194C280.587 219.167 272.925 215.057 264.58 213.387C256.236 211.716 247.582 212.56 239.717 215.81C231.852 219.06 225.128 224.572 220.397 231.646C215.666 238.72 213.14 247.039 213.14 255.55C213.128 261.188 214.228 266.774 216.376 271.987C218.524 277.2 221.678 281.939 225.659 285.932C229.639 289.926 234.367 293.096 239.574 295.261C244.78 297.426 250.362 298.543 256 298.55Z" fill="black"/>
</svg>
