<svg xmlns="http://www.w3.org/2000/svg" width="59.676102mm" height="56.312347mm" viewBox="0 0 59.676102 56.312347">
    <path d="m 10396.989,-1745.4157 -0.104,-23.1019 c 0,0 -19.218,-2.4039 -27.508,-18.0133 -8.291,-15.6094 -22.479,-25.5058 -22.479,-25.5058 l 15.159,-7.4925 22.999,22.3839 14.465,5.5257 2.116,-22.0717 c 0,0 -30.977,-3.2155 -28.791,-32.6862 2.185,-29.4706 11.724,-65.3411 11.724,-65.3411 l 23.138,19.6055 32.989,-1.3736 26.607,-22.0093 8.429,35.2461 c 0,0 11.343,19.8864 6.105,36.3699 -5.238,16.4836 -30.63,29.2521 -30.63,29.2521 l 6.973,67.0582 c 0,0 39.372,-2.9971 56.092,-39.3358 16.72,-36.3388 17.24,-113.1996 -26.954,-137.0196 -44.193,-23.82 -110.796,-33.1857 -141.774,11.7695 -30.977,44.9552 -32.191,112.263 -5.654,136.0518 26.537,23.7888 57.098,30.6881 57.098,30.6881 z" fill="#fff" paint-order="markers stroke fill" transform="translate(-116.81674,13.793082) matrix(0.26458333,0,0,0.26458333,-2611.7826,502.76203)"/>
    <path d="m 10423.896,-1952.3309 c -44.75,-0.3393 -104.161,24.6307 -110.115,98.5039 -8.108,63.0412 36.074,119.3607 88.551,113.9687 2.305,-2.3032 2.644,-27.603 0.5,-30.9766 -0.717,-1.1257 -4.857,-2.5491 -9.196,-3.1621 -21.124,-2.7539 -17.341,-13.2134 -23.873,-23.9882 -3.181,-5.2486 -7.596,-9.0655 -12.615,-10.92 -4.573,-1.6575 -5.32,-2.5399 -3.602,-4.2578 1.334,-1.333 3.632,-2.0139 6.024,-2.084 3.075,-0.09 6.15,0.9728 7.847,2.6856 4.349,4.3903 9.986,15.0109 15.633,20.4336 2.558,2.4564 6.08,2.932 9.229,3.7519 10.403,2.7085 14.437,-2.8404 15.748,-21.6836 0.745,-10.7067 1.846,-10.1385 -9.418,-11.2968 -11.863,-1.1648 -19.197,-8.0659 -19.227,-29.6426 -0.01,-10.9348 1.753,-17.4497 6.588,-23.7168 1.763,-2.2871 2.795,-4.8247 2.291,-5.6406 -1.859,-3.0076 -3.769,-19.3365 -1.644,-21.8965 3.476,-4.1897 5.525,-0.324 10.205,7.3535 2.401,3.9398 5.667,7.8751 7.252,8.7441 1.701,0.9299 11.368,0.9469 23.506,0.041 14.449,-1.0785 18.983,1.1929 28.128,-9.8554 6.247,-6.4331 6.315,-11.1466 9.602,-1.5196 1.355,3.3179 -0.09,9.2797 -0.596,13.0567 -0.768,5.7362 -0.335,6.9234 2.973,8.1816 5.738,2.1811 8.585,8.7823 9.174,14.3262 1.879,17.697 -5.159,30.3757 -24.865,39.6484 -5.417,2.5544 -16.862,4.0454 -9.588,10.9063 6.286,6.7117 7.441,12.9356 7.441,40.1172 0,21.4467 0.472,26.4651 2.567,27.2695 46.417,3.9473 70.659,-39.724 82.392,-68.707 15.314,-64.3991 -19.424,-124.7293 -92.83,-138.0137 -5.596,-1.0127 -11.689,-1.5785 -18.082,-1.6269 z m 2.543,13.5351 c 32.866,0.062 62.168,17.3437 79.311,45.9473 27.402,45.7226 16.095,99.6877 -29.661,126.875 -15.937,9.468 -13.109,7.5818 -12.408,-5.9297 0.53,-10.2701 -1.612,-28.4466 -4.109,-36.8203 -0.857,-2.8763 0.112,-3.9846 5.037,-5.7657 8.064,-2.9158 19.933,-14.6237 24.074,-23.746 6.649,-14.639 3.364,-38.0573 -6.217,-44.334 -2.92,-1.914 -3.637,-3.7659 -3.039,-7.8457 1.004,-6.8377 -6.574,-29.2909 -11.088,-31.7071 -4.492,-2.4028 -11.868,4.4631 -18.384,13.7696 l -4.747,6.7773 -14.927,0.7402 c -8.21,0.4069 -16.586,1.325 -18.612,2.0411 -3.023,1.0686 -3.345,-0.065 -5.951,-4.1719 -16.3,-25.689 -31.111,-21.8114 -31.111,2.2265 0,8.8142 1.312,19.0222 -2.275,23.8829 -5.573,7.5543 -8.227,17.6374 -8.227,30.123 -0.873,21.3285 11.652,35.773 28.975,37.0254 5.863,0 6.014,0.175 5.496,6.4102 -0.495,5.9304 -0.929,6.3811 -5.805,6.0371 -3.337,-0.2356 -6.879,-2.2483 -9.66,-5.4903 -16.789,-19.5781 -18.473,-20.9123 -25.346,-19.8515 -19.704,3.0416 -16.367,17.6571 -4.791,20.6367 6.014,1.5479 7.235,3.4982 13.322,20.8066 3.442,9.7914 11.87,16.0627 21.227,17.5586 6.022,0.9632 6.125,0.2013 6.125,4.6953 0,2.8952 -0.933,5.0194 -2.193,4.9864 -4.963,-0.1297 -18.059,-6.0141 -24.848,-10.7188 -33.856,-23.4619 -48.067,-76.3505 -28.342,-118.0039 10.606,-22.3985 36.342,-44.7463 59.916,-52.0273 9.573,-2.8118 19.055,-4.1444 28.258,-4.127 z m -64.402,125.2227 c -0.967,0 -1.756,0.7899 -1.756,1.7558 0,0.9661 0.789,1.7578 1.756,1.7578 0.966,0 1.755,-0.7917 1.755,-1.7578 0,-0.9659 -0.789,-1.7558 -1.755,-1.7558 z m 5.039,7.7246 c 0.04,1.0481 0.841,2.0344 1.599,2.2597 0.757,0.2254 2.132,0.8289 2.645,-0.9355 0.513,-1.7643 -0.678,-3.0607 -2.119,-3.3301 -1.549,-0.1386 -2.149,1.0346 -2.125,2.0059 z m 8.875,8.582 c -0.716,-0.06 -1.497,0.052 -1.83,0.4531 -1.277,1.9176 -0.324,3.8213 1.078,4.6231 1.247,0.7133 2.748,1.7539 4.746,-1.0332 0.596,-0.8318 -0.437,-3.1676 -3.319,-3.9297 -0.205,-0.054 -0.437,-0.093 -0.675,-0.1133 z m 8.328,8.1172 c -0.607,0.038 -1.227,0.2075 -1.783,0.4883 -2.909,1.4669 -2.974,3.4578 -0.661,5.0058 3.978,2.6611 5.949,1.1999 5.622,-2.8828 -0.136,-1.6956 -1.266,-2.4911 -2.579,-2.6054 -0.196,-0.017 -0.397,-0.018 -0.599,-0.01 z m 8.812,5.5156 c -0.513,1.8265 -0.09,3.004 1.012,3.8067 0.928,0.6537 3.659,1.4947 4.836,-0.01 1.582,-2.0195 1.312,-4.2265 -0.822,-5.5449 -1.958,-1.2321 -4.034,0.086 -5.026,1.748 z" fill="#030303" transform="translate(-116.81674,13.793082) matrix(0.26458333,0,0,0.26458333,-2611.7826,502.76203)"/>
</svg>
