<svg xmlns="http://www.w3.org/2000/svg" width="65.204697mm" height="64.030983mm" viewBox="0 0 65.204697 64.030983">
    <path d="m 11169.058,-660.73865 h 201.904 c 6.889,0 12.435,5.54603 12.435,12.43504 v 198.45321 c 0,6.88901 -5.546,12.43504 -12.435,12.43504 h -201.904 c -6.889,0 -12.435,-5.54603 -12.435,-12.43504 v -198.45321 c 0,-6.88901 5.546,-12.43504 12.435,-12.43504 z" color="#000" overflow="visible" fill="#fff" paint-order="fill markers stroke" transform="translate(-76.553696,-184.29985) matrix(0.26458333,0,0,0.26458333,-2872.9366,362.04743)"/>
    <path d="m 11147.68,-446.10213 0.724,-197.0599 c -3.553,-27.5905 14.978,-29.18378 32.219,-28.53638 16.299,2.184 147.153,2.6743 185.2,-0.049 25.552,3.6255 29.935,21.22868 27.842,43.76128 -2.29,24.0716 -1.33,132.8549 -1.62,153.2731 -0.337,38.3487 3.216,41.3729 -30.705,43.1017 -65.76,4.9889 -135.896,-2.3276 -196.468,1.7188 -14.79,-1.0269 -16.3,-8.4697 -17.192,-16.2104 z m 216.491,-2.73849 c 12.371,0.9762 10.894,-1.36939 13.251,-43.14339 -2.102,-44.5765 -0.617,-90.9406 1.075,-147.6049 0.145,-9.3929 -0.847,-13.93318 -12.885,-15.19528 -7.579,-0.7945 -130.791,-0.5404 -182.949,-0.053 -18.769,-0.6479 -15.785,-2.35216 -18.032,15.42644 -2.319,18.3754 1.779,126.128 -0.193,181.0867 -0.192,5.9449 0.767,12.38363 11.551,11.33073 64.348,-0.5936 124.202,0.38415 188.182,-1.8473 z m -43.719,-26.17681 c -6.127,-1.5389 -7.622,-7.5825 -7.539,-17.2772 0.04,-6.1464 4.667,-42.2002 3.837,-49.3841 -5.149,-15.3367 -19.993,-7.2557 -20.48,7.8617 l -7.535,54.8546 c -14.959,4.6402 -30.295,1.6102 -45.742,2.9191 -2.792,-1.0698 -4.407,-10.5446 -1.9,-55.1477 l 3.197,-57.0302 c 11.83,-4.1529 25.455,-7.7074 33.197,-0.1784 3.616,3.6476 1.48,4.4209 16.797,-1.7654 21.405,-11.1902 45.337,0.9434 52.854,18.0539 10.104,25.0675 13.648,90.944 5.591,94.0353 -12.076,1.346 -16.117,4.3963 -32.277,3.0599 z m -42.024,-14.8614 c 2.131,-18.3306 2.444,-54.194 19.414,-71.0976 6.769,-7.8593 18.469,-3.7146 24.746,1.3701 7.994,6.4709 6.374,22.4049 4.932,47.3298 -0.627,10.8021 -1.813,20.0239 -1.032,21.2845 1.577,2.5537 10.443,5.119 15.153,1.4097 6.123,-4.823 2.868,-57.3889 -5.125,-76.5261 -13.441,-25.3521 -43.78,-16.0165 -53.793,0.4242 -7.184,8.5429 -13.972,13.9021 -13.47,2.8715 0.145,-5.8056 0.337,-8.974 1.249,-12.5994 0,0 -7.874,-5.5857 -12.998,-2.5851 -2.762,3.4785 -6.581,85.8154 -4.175,89.7122 11.045,1.6551 18.571,-0.2169 25.099,-1.5943 z m -91.938,9.877 c -1.923,-14.2979 -1.885,-9.7579 -0.516,-41.1695 1.118,-25.6375 0.434,-45.1246 2.921,-61.94 0.386,-3.9109 10.766,-4.5608 21.055,-4.2869 10.292,0.2748 20.488,1.4704 20.349,6.0798 l -1.013,32.9042 c 1.022,18.9656 -6.57,38.9243 -3.423,57.5427 3.067,8.2865 -2.251,11.8449 -20.195,13.5207 -11.469,0.4147 -16.662,0.6749 -19.178,-2.651 z m 25.132,-16.7002 c 0,0 6.721,-67.8459 4.894,-75.4815 -1.249,-5.2318 -9.864,-2.8805 -14.618,-0.3326 -3.567,1.9077 -2.285,41.8092 -3.139,67.8627 -0.496,15.154 7.126,12.4668 12.863,7.9533 z m -24.63,-135.845 c 4.579,-5.7457 14.767,-13.2429 30.58,-8.956 10.394,2.8179 15.783,10.1039 15.783,22.2867 0,16.0315 -8.836,20.9263 -24.519,20.9263 -17.819,1.2651 -31.708,-20.8439 -21.844,-34.257 z m 34.176,13.2878 c 0.145,-6.3064 -2.859,-13.0718 -12.174,-12.838 -7.448,0 -13.291,5.7732 -13.291,10.6806 0,4.675 6.744,14.3764 12.55,14.3181 13.658,-0.135 12.804,-7.6452 12.915,-12.1607 z" fill="#030303" transform="translate(-76.553696,-184.29985) matrix(0.26458333,0,0,0.26458333,-2872.9366,362.04743)"/>
</svg>
