<svg width="512" height="512" viewBox="0 0 512 512" fill="none" xmlns="http://www.w3.org/2000/svg">
<path d="M429.76 130.07L274.33 36.85C268.747 33.6672 262.431 31.9933 256.005 31.9933C249.579 31.9933 243.263 33.6672 237.68 36.85L82.24 130.06C76.6384 133.493 72.0167 138.312 68.8216 144.052C65.6264 149.793 63.9657 156.26 64 162.83V349C63.9664 355.574 65.6271 362.045 68.8219 367.79C72.0168 373.535 76.638 378.36 82.24 381.8L123 406.14L123.23 406.27C143.81 416.8 151.69 416.8 160.82 416.8C192.96 416.8 212.93 396 212.93 362.51V182C212.949 179.746 212.073 177.577 210.494 175.969C208.916 174.36 206.764 173.444 204.51 173.42H182.13C179.876 173.444 177.724 174.36 176.146 175.969C174.567 177.577 173.691 179.746 173.71 182V362.51C173.791 365.094 173.204 367.656 172.003 369.946C170.803 372.236 169.031 374.176 166.86 375.58C160.96 379.18 152.39 378.42 142.72 373.43L103.66 349.92C103.51 349.818 103.388 349.681 103.305 349.52C103.221 349.36 103.178 349.181 103.18 349V165.46C103.186 165.249 103.243 165.043 103.346 164.858C103.449 164.674 103.594 164.517 103.77 164.4L255.61 71.4C255.723 71.3436 255.848 71.3143 255.975 71.3143C256.102 71.3143 256.227 71.3436 256.34 71.4L408.27 164.4C408.443 164.526 408.583 164.692 408.679 164.883C408.774 165.075 408.823 165.286 408.82 165.5V349C408.824 349.19 408.785 349.378 408.708 349.551C408.63 349.724 408.514 349.877 408.37 350L256.31 440.65C256.051 440.74 255.769 440.74 255.51 440.65L216.68 417.59C215.527 416.836 214.196 416.402 212.82 416.33C211.445 416.258 210.075 416.551 208.85 417.18L208.51 417.38C197.79 423.73 194.91 425.38 184.97 429C183.35 429.59 179.54 431 179.21 434.77C178.88 438.54 182.5 441.22 185.72 443.09L237.62 474.96C243.15 478.272 249.474 480.025 255.92 480.03H256.5C262.785 479.931 268.934 478.183 274.33 474.96L429.76 381.83C435.359 378.38 439.977 373.548 443.171 367.799C446.365 362.05 448.028 355.577 448 349V162.83C448.032 156.262 446.37 149.797 443.175 144.059C439.98 138.32 435.36 133.503 429.76 130.07V130.07Z" fill="black"/>
<path d="M307.88 318.05C270.59 318.05 262.64 307.63 260.28 290.81C260.014 288.807 259.038 286.967 257.53 285.623C256.021 284.28 254.08 283.523 252.06 283.49H232.26C230.028 283.537 227.907 284.467 226.359 286.075C224.811 287.683 223.962 289.838 224 292.07C224 306.65 229.12 354.24 307.92 354.24C332.3 354.24 352.58 348.54 366.55 337.75C380.52 326.96 388 311.26 388 292.55C388 255 363.5 244.72 315.25 238C266.2 231.18 266.2 227.71 266.2 220.11C266.2 214.64 266.2 201.83 301.66 201.83C326.89 201.83 340.4 205.02 344.72 221.83C345.103 223.694 346.11 225.371 347.576 226.584C349.042 227.797 350.878 228.473 352.78 228.5H372.65C373.821 228.488 374.976 228.227 376.038 227.734C377.101 227.241 378.045 226.527 378.81 225.64C380.338 223.857 381.1 221.542 380.93 219.2C378.36 183.65 352.37 165.62 301.69 165.62C255.63 165.62 228.14 186.37 228.14 221.12C228.14 259.22 256.63 269.99 299.43 274.45C349.43 279.62 349.43 287.16 349.43 293.82C349.46 304.2 345.15 318.05 307.88 318.05Z" fill="black"/>
</svg>
